<svg xmlns="http://www.w3.org/2000/svg" xmlns:xlink="http://www.w3.org/1999/xlink" viewBox="0 0 366.37 45.75"><defs><style>.cls-1,.cls-10,.cls-11,.cls-12,.cls-13,.cls-14,.cls-15,.cls-16,.cls-17,.cls-18,.cls-19,.cls-2,.cls-20,.cls-3,.cls-4,.cls-5,.cls-6,.cls-7,.cls-8,.cls-9{stroke:#000;stroke-miterlimit:10;stroke-width:2px;}.cls-1{fill:url(#linear-gradient);}.cls-2{fill:url(#linear-gradient-2);}.cls-3{fill:url(#linear-gradient-3);}.cls-4{fill:url(#linear-gradient-4);}.cls-5{fill:url(#linear-gradient-5);}.cls-6{fill:url(#linear-gradient-6);}.cls-7{fill:url(#linear-gradient-7);}.cls-8{fill:url(#linear-gradient-8);}.cls-9{fill:url(#linear-gradient-9);}.cls-10{fill:url(#linear-gradient-10);}.cls-11{fill:url(#linear-gradient-11);}.cls-12{fill:url(#linear-gradient-12);}.cls-13{fill:url(#linear-gradient-13);}.cls-14{fill:url(#linear-gradient-14);}.cls-15{fill:url(#linear-gradient-15);}.cls-16{fill:url(#linear-gradient-16);}.cls-17{fill:url(#linear-gradient-17);}.cls-18{fill:url(#linear-gradient-18);}.cls-19{fill:url(#linear-gradient-19);}.cls-20{fill:url(#linear-gradient-20);}</style><linearGradient id="linear-gradient" x1="6.63" y1="32.25" x2="6.63" y2="15.38" gradientUnits="userSpaceOnUse"><stop offset="0.28" stop-color="#c5a88b"/><stop offset="0.67" stop-color="#fee6b2"/><stop offset="0.89" stop-color="#9b856e"/><stop offset="1" stop-color="#7e6d50"/></linearGradient><linearGradient id="linear-gradient-2" x1="19.75" x2="19.75" y2="17.25" xlink:href="#linear-gradient"/><linearGradient id="linear-gradient-3" x1="32.88" x2="32.88" y2="17.25" xlink:href="#linear-gradient"/><linearGradient id="linear-gradient-4" x1="46" x2="46" y2="17.25" xlink:href="#linear-gradient"/><linearGradient id="linear-gradient-5" x1="59.13" x2="59.13" y2="15.38" xlink:href="#linear-gradient"/><linearGradient id="linear-gradient-6" x1="77.88" y1="34.13" x2="77.88" y2="17.25" xlink:href="#linear-gradient"/><linearGradient id="linear-gradient-7" x1="91" x2="91" y2="17.25" xlink:href="#linear-gradient"/><linearGradient id="linear-gradient-8" x1="104.13" y1="34.13" x2="104.13" y2="17.25" xlink:href="#linear-gradient"/><linearGradient id="linear-gradient-9" x1="117.25" x2="117.25" y2="17.25" xlink:href="#linear-gradient"/><linearGradient id="linear-gradient-10" x1="130.38" x2="130.38" y2="17.25" xlink:href="#linear-gradient"/><linearGradient id="linear-gradient-11" x1="139.75" y1="30.38" x2="139.75" y2="19.13" xlink:href="#linear-gradient"/><linearGradient id="linear-gradient-12" x1="177.87" y1="44.75" x2="177.87" y2="1" xlink:href="#linear-gradient"/><linearGradient id="linear-gradient-13" x1="212.25" x2="212.25" y2="7.25" xlink:href="#linear-gradient"/><linearGradient id="linear-gradient-14" x1="235.69" y1="35.38" x2="235.69" y2="7.25" xlink:href="#linear-gradient"/><linearGradient id="linear-gradient-15" x1="259.12" x2="259.12" y2="7.25" xlink:href="#linear-gradient"/><linearGradient id="linear-gradient-16" x1="281" x2="281" y2="4.13" xlink:href="#linear-gradient"/><linearGradient id="linear-gradient-17" x1="302.87" x2="302.87" y2="7.25" xlink:href="#linear-gradient"/><linearGradient id="linear-gradient-18" x1="318.5" x2="318.5" y2="7.25" xlink:href="#linear-gradient"/><linearGradient id="linear-gradient-19" x1="334.12" y1="35.38" x2="334.12" y2="7.25" xlink:href="#linear-gradient"/><linearGradient id="linear-gradient-20" x1="356" y1="35.38" x2="356" y2="7.25" xlink:href="#linear-gradient"/></defs><title>Asset 15</title><g id="Layer_2" data-name="Layer 2"><g id="Layer_1-2" data-name="Layer 1"><path class="cls-1" d="M1,32.25V22.88H2.88V21H1V17.25H2.88V15.38H4.75V28.5h7.5v1.88H10.38v1.88Z"/><path class="cls-2" d="M14.13,32.25V22.88H16V21H14.13V17.25H25.38V21h-7.5v1.88H23.5v1.88H21.63v1.88H17.88V28.5h7.5v3.75Z"/><path class="cls-3" d="M31,32.25V30.38H29.13V26.63H27.25V22.88h1.88V21H27.25V17.25H31v7.5h1.88v1.88h1.88v-7.5h1.88V17.25H38.5v9.38H36.63v3.75H34.75v1.88Z"/><path class="cls-4" d="M40.38,32.25V22.88h1.88V21H40.38V17.25H51.63V21h-7.5v1.88h5.63v1.88H47.88v1.88H44.13V28.5h7.5v3.75Z"/><path class="cls-5" d="M53.5,32.25V22.88h1.88V21H53.5V17.25h1.88V15.38h1.88V28.5h7.5v1.88H62.88v1.88Z"/><path class="cls-6" d="M77.88,34.13V32.25H76V22.88h1.88V21H72.25V17.25H83.5V21H79.75V34.13Z"/><path class="cls-7" d="M85.38,32.25V22.88h1.88V21H85.38V17.25h3.75v5.63h3.75V17.25h3.75v15H92.88v-7.5H91v1.88H89.13v5.63Z"/><path class="cls-8" d="M107.88,34.13V32.25H106V26.63h-1.87V28.5h-1.87v3.75H98.5V22.88h1.88V21H98.5V17.25h9.38v1.88h1.88v5.63h-1.87v1.88h1.88v7.5ZM106,24.75V21h-3.75v3.75Z"/><path class="cls-9" d="M111.63,32.25V22.88h1.88V21h-1.87V17.25h11.25V21h-7.5v1.88H121v1.88h-1.87v1.88h-3.75V28.5h7.5v3.75Z"/><path class="cls-10" d="M124.75,32.25V22.88h1.88V21h-1.87V17.25H136V21h-7.5v1.88h5.63v1.88h-1.87v1.88H128.5V28.5H136v3.75Z"/><path class="cls-11" d="M137.88,22.88V19.13h3.75v3.75Zm0,7.5V26.63h3.75v3.75Z"/><path class="cls-12" d="M168.5,44.75V41.63h-3.12V38.5h-6.25V35.38H156V32.25h-3.12V16.63H156V10.38h3.13V7.25h3.13V4.13h3.13V1h21.88V4.13h6.25V1h6.25V13.5h-3.12v6.25H193.5V16.63h-3.12V10.38h-3.12V7.25h-12.5v3.13h-3.12V13.5H168.5v6.25h-3.12v9.38h3.13v3.13h6.25v3.13h9.38V32.25h12.5V29.13h3.13V26h3.13v9.38h-3.12V38.5h-3.12v3.13h-6.25v3.13Z"/><path class="cls-13" d="M206,32.25V29.13h-3.12V16.63H206V13.5h-3.12V10.38H206V7.25h12.5v3.13h3.13V29.13H218.5v3.13ZM215.37,26V13.5h-6.25V26Z"/><path class="cls-14" d="M243.5,35.38V32.25h-3.12V22.88h-3.12V26h-3.12V22.88H231v9.38h-6.25V16.63h3.13V13.5h-3.12V7.25h3.13v3.13H231V13.5h3.13v3.13h3.13V13.5h3.13V10.38h3.13V7.25h3.13V35.38Z"/><path class="cls-15" d="M249.75,32.25V16.63h3.13V13.5h-3.12V7.25h15.63v3.13h3.13v12.5h-3.12V26h-6.25V22.88H256v9.38Zm12.5-12.5V13.5H256v6.25Z"/><path class="cls-16" d="M271.62,32.25V16.63h3.13V13.5h-3.12V7.25h3.13V4.13h3.13V26h12.5v3.13h-3.12v3.13Z"/><path class="cls-17" d="M293.5,32.25V16.63h3.13V13.5H293.5V10.38h3.13V7.25h12.5v3.13h3.13V32.25H306V22.88h-3.12V26h-3.12v6.25ZM306,19.75V13.5h-6.25v6.25Z"/><path class="cls-18" d="M315.37,32.25V16.63h3.13V13.5h-3.12V7.25h6.25v25Z"/><path class="cls-19" d="M340.37,35.38V32.25h-3.12V26h-3.12V22.88H331v9.38h-6.25V16.63h3.13V13.5h-3.12V7.25h3.13v3.13H331V13.5h3.13v3.13h3.13V10.38h3.13V7.25h3.13V35.38Z"/><path class="cls-20" d="M356,35.38V32.25h-3.12V16.63H356V13.5h-9.37V7.25h18.75V13.5h-6.25V35.38Z"/></g></g></svg>