<svg xmlns="http://www.w3.org/2000/svg" xmlns:xlink="http://www.w3.org/1999/xlink" viewBox="0 0 476.13 45.75"><defs><style>.cls-1,.cls-10,.cls-11,.cls-12,.cls-13,.cls-14,.cls-15,.cls-16,.cls-17,.cls-18,.cls-19,.cls-2,.cls-20,.cls-21,.cls-22,.cls-23,.cls-3,.cls-4,.cls-5,.cls-6,.cls-7,.cls-8,.cls-9{stroke:#1e1e17;stroke-miterlimit:10;stroke-width:2px;}.cls-1{fill:url(#linear-gradient);}.cls-2{fill:url(#linear-gradient-2);}.cls-3{fill:url(#linear-gradient-3);}.cls-4{fill:url(#linear-gradient-4);}.cls-5{fill:url(#linear-gradient-5);}.cls-6{fill:url(#linear-gradient-6);}.cls-7{fill:url(#linear-gradient-7);}.cls-8{fill:url(#linear-gradient-8);}.cls-9{fill:url(#linear-gradient-9);}.cls-10{fill:url(#linear-gradient-10);}.cls-11{fill:url(#linear-gradient-11);}.cls-12{fill:url(#linear-gradient-12);}.cls-13{fill:url(#linear-gradient-13);}.cls-14{fill:url(#linear-gradient-14);}.cls-15{fill:url(#linear-gradient-15);}.cls-16{fill:url(#linear-gradient-16);}.cls-17{fill:url(#linear-gradient-17);}.cls-18{fill:url(#linear-gradient-18);}.cls-19{fill:url(#linear-gradient-19);}.cls-20{fill:url(#linear-gradient-20);}.cls-21{fill:url(#linear-gradient-21);}.cls-22{fill:url(#linear-gradient-22);}.cls-23{fill:url(#linear-gradient-23);}</style><linearGradient id="linear-gradient" x1="6.44" y1="32.25" x2="6.44" y2="15.94" gradientUnits="userSpaceOnUse"><stop offset="0.28" stop-color="#c5a88b"/><stop offset="0.67" stop-color="#fee6b2"/><stop offset="0.89" stop-color="#9b856e"/><stop offset="1" stop-color="#7e6d50"/></linearGradient><linearGradient id="linear-gradient-2" x1="19.13" x2="19.13" y2="17.75" xlink:href="#linear-gradient"/><linearGradient id="linear-gradient-3" x1="31.81" x2="31.81" y2="17.75" xlink:href="#linear-gradient"/><linearGradient id="linear-gradient-4" x1="44.5" x2="44.5" y2="17.75" xlink:href="#linear-gradient"/><linearGradient id="linear-gradient-5" x1="57.19" x2="57.19" y2="15.94" xlink:href="#linear-gradient"/><linearGradient id="linear-gradient-6" x1="75.31" y1="34.06" x2="75.31" y2="17.75" xlink:href="#linear-gradient"/><linearGradient id="linear-gradient-7" x1="89.81" x2="89.81" y2="17.75" xlink:href="#linear-gradient"/><linearGradient id="linear-gradient-8" x1="104.31" x2="104.31" y2="17.75" xlink:href="#linear-gradient"/><linearGradient id="linear-gradient-9" x1="113.38" y1="30.44" x2="113.38" y2="19.56" xlink:href="#linear-gradient"/><linearGradient id="linear-gradient-10" x1="153.25" y1="44.75" x2="153.25" y2="1" xlink:href="#linear-gradient"/><linearGradient id="linear-gradient-11" x1="187.63" x2="187.63" y2="7.25" xlink:href="#linear-gradient"/><linearGradient id="linear-gradient-12" x1="209.5" y1="35.38" x2="209.5" y2="7.25" xlink:href="#linear-gradient"/><linearGradient id="linear-gradient-13" x1="231.38" y1="35.38" x2="231.38" y2="7.25" xlink:href="#linear-gradient"/><linearGradient id="linear-gradient-14" x1="253.25" x2="253.25" y2="7.25" xlink:href="#linear-gradient"/><linearGradient id="linear-gradient-15" x1="275.13" x2="275.13" y2="7.25" xlink:href="#linear-gradient"/><linearGradient id="linear-gradient-16" x1="297" y1="35.38" x2="297" y2="7.25" xlink:href="#linear-gradient"/><linearGradient id="linear-gradient-17" x1="331.38" y1="41.63" x2="331.38" y2="1" xlink:href="#linear-gradient"/><linearGradient id="linear-gradient-18" x1="368.88" x2="368.88" y2="7.25" xlink:href="#linear-gradient"/><linearGradient id="linear-gradient-19" x1="390.75" y1="35.38" x2="390.75" y2="7.25" xlink:href="#linear-gradient"/><linearGradient id="linear-gradient-20" x1="412.63" x2="412.63" y2="7.25" xlink:href="#linear-gradient"/><linearGradient id="linear-gradient-21" x1="428.25" x2="428.25" y2="7.25" xlink:href="#linear-gradient"/><linearGradient id="linear-gradient-22" x1="443.88" x2="443.88" y2="4.13" xlink:href="#linear-gradient"/><linearGradient id="linear-gradient-23" x1="465.75" x2="465.75" y2="7.25" xlink:href="#linear-gradient"/></defs><title>Asset 14</title><g id="Layer_2" data-name="Layer 2"><g id="Layer_1-2" data-name="Layer 1"><path class="cls-1" d="M1,32.25V23.19H2.81V21.38H1V17.75H2.81V15.94H4.63V28.63h7.25v1.81H10.06v1.81Z"/><path class="cls-2" d="M13.69,32.25V23.19H15.5V21.38H13.69V17.75H24.56v3.63H17.31v1.81h5.44V25H20.94v1.81H17.31v1.81h7.25v3.63Z"/><path class="cls-3" d="M30,32.25V30.44H28.19V26.81H26.38V23.19h1.81V21.38H26.38V17.75H30V25h1.81v1.81h1.81V19.56h1.81V17.75h1.81v9.06H35.44v3.63H33.63v1.81Z"/><path class="cls-4" d="M39.06,32.25V23.19h1.81V21.38H39.06V17.75H49.94v3.63H42.69v1.81h5.44V25H46.31v1.81H42.69v1.81h7.25v3.63Z"/><path class="cls-5" d="M51.75,32.25V23.19h1.81V21.38H51.75V17.75h1.81V15.94h1.81V28.63h7.25v1.81H60.81v1.81Z"/><path class="cls-6" d="M75.31,34.06V32.25H73.5V23.19h1.81V21.38H69.88V17.75H80.75v3.63H77.13V34.06Z"/><path class="cls-7" d="M84.38,32.25V30.44H82.56V23.19h1.81V21.38H82.56V17.75h3.63V28.63H88V19.56h1.81V17.75h1.81V28.63h1.81V19.56h1.81V17.75h1.81V30.44H95.25v1.81H91.63V30.44H89.81v1.81Z"/><path class="cls-8" d="M100.69,32.25V30.44H98.88V23.19h1.81V21.38H98.88V19.56h1.81V17.75h7.25v1.81h1.81V30.44h-1.81v1.81Zm5.44-3.62V21.38H102.5v7.25Z"/><path class="cls-9" d="M111.56,23.19V19.56h3.63v3.63Zm0,7.25V26.81h3.63v3.63Z"/><path class="cls-10" d="M143.88,44.75V41.63h-3.12V38.5H134.5V35.38h-3.12V32.25h-3.12V16.63h3.13V10.38h3.13V7.25h3.13V4.13h3.13V1h21.88V4.13h6.25V1h6.25V13.5H172v6.25h-3.12V16.63h-3.12V10.38h-3.12V7.25h-12.5v3.13H147V13.5h-3.12v6.25h-3.12v9.38h3.13v3.13h6.25v3.13h9.38V32.25H172V29.13h3.13V26h3.13v9.38h-3.12V38.5H172v3.13h-6.25v3.13Z"/><path class="cls-11" d="M181.38,32.25V29.13h-3.12V16.63h3.13V13.5h-3.12V10.38h3.13V7.25h12.5v3.13H197V29.13h-3.12v3.13ZM190.75,26V13.5H184.5V26Z"/><path class="cls-12" d="M215.75,35.38V32.25h-3.12V26H209.5V22.88h-3.12v9.38h-6.25V16.63h3.13V13.5h-3.12V7.25h3.13v3.13h3.13V13.5h3.13v3.13h3.13V10.38h3.13V7.25h3.13V35.38Z"/><path class="cls-13" d="M231.38,35.38V32.25h-3.12V16.63h3.13V13.5H222V7.25h18.75V13.5H234.5V35.38Z"/><path class="cls-14" d="M243.88,32.25V16.63H247V13.5h-3.12V10.38H247V7.25h12.5v3.13h3.13V32.25h-6.25V22.88h-3.12V26h-3.12v6.25Zm12.5-12.5V13.5h-6.25v6.25Z"/><path class="cls-15" d="M268.88,32.25V29.13h-3.12V16.63h3.13V13.5h-3.12V10.38h3.13V7.25h12.5v3.13h3.13v6.25h-6.25V13.5H272V26h6.25V22.88h6.25v6.25h-3.12v3.13Z"/><path class="cls-16" d="M297,35.38V32.25h-3.12V16.63H297V13.5h-9.37V7.25h18.75V13.5h-6.25V35.38Z"/><path class="cls-17" d="M312.63,41.63V38.5H309.5V35.38h-3.12V32.25h6.25V29.13h6.25V26H322V19.75h3.13V10.38H322V7.25h-3.12V4.13h-3.12V1h28.13V4.13h6.25V7.25h3.13V13.5h3.13v9.38h-3.12v6.25h-3.12v3.13H347v3.13h-6.25V38.5h-9.37v3.13Zm18.75-9.37V29.13h6.25V26h3.13V22.88h3.13V13.5h-3.12V10.38H334.5v6.25h-3.12v6.25h-3.12v6.25h-3.12v3.13Z"/><path class="cls-18" d="M359.5,32.25V16.63h3.13V13.5H359.5V7.25h18.75V13.5h-12.5v3.13h9.38v3.13H372v3.13h-6.25V26h12.5v6.25Z"/><path class="cls-19" d="M390.75,35.38V32.25h-3.12V16.63h3.13V13.5h-9.37V7.25h18.75V13.5h-6.25V35.38Z"/><path class="cls-20" d="M403.25,32.25V16.63h3.13V13.5h-3.12V10.38h3.13V7.25h12.5v3.13H422V32.25h-6.25V22.88h-3.12V26H409.5v6.25Zm12.5-12.5V13.5H409.5v6.25Z"/><path class="cls-21" d="M425.13,32.25V16.63h3.13V13.5h-3.12V7.25h6.25v25Z"/><path class="cls-22" d="M434.5,32.25V16.63h3.13V13.5H434.5V7.25h3.13V4.13h3.13V26h12.5v3.13h-3.12v3.13Z"/><path class="cls-23" d="M459.5,32.25V29.13h-3.12V26h12.5V22.88H459.5V19.75h-3.12V16.63h3.13V13.5h-3.12V10.38h3.13V7.25h15.63v3.13H472V13.5h-9.37v3.13H472v3.13h3.13v9.38H472v3.13Z"/></g></g></svg>