<svg xmlns="http://www.w3.org/2000/svg" xmlns:xlink="http://www.w3.org/1999/xlink" viewBox="0 0 238.75 56.88"><defs><style>.cls-1{fill:#1d1d1b;}.cls-10,.cls-11,.cls-12,.cls-13,.cls-14,.cls-2,.cls-3,.cls-4,.cls-5,.cls-6,.cls-7,.cls-8,.cls-9{stroke:#1e1e17;stroke-miterlimit:10;stroke-width:1.5px;}.cls-2{fill:url(#linear-gradient);}.cls-3{fill:url(#linear-gradient-2);}.cls-4{fill:url(#linear-gradient-3);}.cls-5{fill:url(#linear-gradient-4);}.cls-6{fill:url(#linear-gradient-5);}.cls-7{fill:url(#linear-gradient-6);}.cls-8{fill:url(#linear-gradient-7);}.cls-9{fill:url(#linear-gradient-8);}.cls-10{fill:url(#linear-gradient-9);}.cls-11{fill:url(#linear-gradient-10);}.cls-12{fill:url(#linear-gradient-11);}.cls-13{fill:url(#linear-gradient-12);}.cls-14{fill:url(#linear-gradient-13);}</style><linearGradient id="linear-gradient" x1="8.63" y1="32" x2="8.63" y2="15.13" gradientUnits="userSpaceOnUse"><stop offset="0.28" stop-color="#c5a88b"/><stop offset="0.67" stop-color="#fee6b2"/><stop offset="0.89" stop-color="#9b856e"/><stop offset="1" stop-color="#7e6d50"/></linearGradient><linearGradient id="linear-gradient-2" x1="21.75" x2="21.75" y2="17" xlink:href="#linear-gradient"/><linearGradient id="linear-gradient-3" x1="34.88" x2="34.88" y2="17" xlink:href="#linear-gradient"/><linearGradient id="linear-gradient-4" x1="48" x2="48" y2="17" xlink:href="#linear-gradient"/><linearGradient id="linear-gradient-5" x1="61.13" x2="61.13" y2="15.13" xlink:href="#linear-gradient"/><linearGradient id="linear-gradient-6" x1="79.88" x2="79.88" y2="17" xlink:href="#linear-gradient"/><linearGradient id="linear-gradient-7" x1="93" y1="33.88" x2="93" y2="17" xlink:href="#linear-gradient"/><linearGradient id="linear-gradient-8" x1="106.13" x2="106.13" y2="17" xlink:href="#linear-gradient"/><linearGradient id="linear-gradient-9" x1="115.5" y1="30.13" x2="115.5" y2="18.88" xlink:href="#linear-gradient"/><linearGradient id="linear-gradient-10" x1="147.37" y1="53.88" x2="147.37" y2="0.75" xlink:href="#linear-gradient"/><linearGradient id="linear-gradient-11" x1="181.75" x2="181.75" y2="7" xlink:href="#linear-gradient"/><linearGradient id="linear-gradient-12" x1="205.19" y1="35.13" x2="205.19" y2="7" xlink:href="#linear-gradient"/><linearGradient id="linear-gradient-13" x1="228.62" x2="228.62" y2="7" xlink:href="#linear-gradient"/></defs><title>Asset 4</title><g id="Layer_2" data-name="Layer 2"><g id="Layer_1-2" data-name="Layer 1"><path class="cls-1" d="M0,35V25.63H1.88V23.75H0V20H1.88V18.13H3.75V31.25h7.5v1.88H9.38V35Z"/><path class="cls-1" d="M13.13,35V25.63H15V23.75H13.13V20H24.38v3.75h-7.5v1.88H22.5V27.5H20.63v1.88H16.88v1.88h7.5V35Z"/><path class="cls-1" d="M30,35V33.13H28.13V29.38H26.25V25.63h1.88V23.75H26.25V20H30v7.5h1.88v1.88h1.88v-7.5h1.88V20H37.5v9.38H35.63v3.75H33.75V35Z"/><path class="cls-1" d="M39.38,35V25.63h1.88V23.75H39.38V20H50.63v3.75h-7.5v1.88h5.63V27.5H46.88v1.88H43.13v1.88h7.5V35Z"/><path class="cls-1" d="M52.5,35V25.63h1.88V23.75H52.5V20h1.88V18.13h1.88V31.25h7.5v1.88H61.88V35Z"/><path class="cls-1" d="M73.13,35V33.13H71.25v-7.5h1.88V23.75H71.25V21.88h1.88V20h7.5v1.88H82.5V33.13H80.63V35Zm5.63-3.75v-7.5H75v7.5Z"/><path class="cls-1" d="M93.75,36.88V35H91.88V31.25H90V29.38H88.13V35H84.38V25.63h1.88V23.75H84.38V20h1.88v1.88h1.88v1.88H90v1.88h1.88V21.88h1.88V20h1.88V36.88Z"/><path class="cls-1" d="M97.5,35V25.63h1.88V23.75H97.5V20h11.25v3.75h-7.5v1.88h5.63V27.5H105v1.88h-3.75v1.88h7.5V35Z"/><path class="cls-1" d="M110.63,25.63V21.88h3.75v3.75Zm0,7.5V29.38h3.75v3.75Z"/><path class="cls-1" d="M150.62,56.88V47.5H147.5V44.38h-3.12V38.13h-3.12V28.75h-3.12V35h-6.25v9.38h-3.12V47.5h-3.12V28.75h3.12V10h-3.12V6.88H122.5V3.75h18.75V6.88h3.13V10h3.13v6.25h3.13V22.5h3.13v6.25h3.13V19.38H160V16.25h-3.12V6.88h-3.12V3.75h12.5V22.5h-3.12V38.13H160V47.5h-3.12v6.25h-3.12v3.13Z"/><path class="cls-1" d="M169.37,35V19.38h3.13V16.25h-3.12V13.13h3.13V10H185v3.13h3.13V35h-6.25V25.63h-3.12v3.13h-3.12V35Zm12.5-12.5V16.25h-6.25V22.5Z"/><path class="cls-1" d="M210,38.13V35h-3.12V25.63h-3.12v3.13h-3.12V25.63H197.5V35h-6.25V19.38h3.13V16.25h-3.12V10h3.13v3.13h3.13v3.13h3.13v3.13h3.13V16.25h3.13V13.13H210V10h3.13V38.13Z"/><path class="cls-1" d="M216.25,35V19.38h3.13V16.25h-3.12V10H235v6.25H222.5v3.13h9.38V22.5h-3.12v3.13H222.5v3.13H235V35Z"/><path class="cls-2" d="M3,32V22.63H4.88V20.75H3V17H4.88V15.13H6.75V28.25h7.5v1.88H12.38V32Z"/><path class="cls-3" d="M16.13,32V22.63H18V20.75H16.13V17H27.38v3.75h-7.5v1.88H25.5V24.5H23.63v1.88H19.88v1.88h7.5V32Z"/><path class="cls-4" d="M33,32V30.13H31.13V26.38H29.25V22.63h1.88V20.75H29.25V17H33v7.5h1.88v1.88h1.88v-7.5h1.88V17H40.5v9.38H38.63v3.75H36.75V32Z"/><path class="cls-5" d="M42.38,32V22.63h1.88V20.75H42.38V17H53.63v3.75h-7.5v1.88h5.63V24.5H49.88v1.88H46.13v1.88h7.5V32Z"/><path class="cls-6" d="M55.5,32V22.63h1.88V20.75H55.5V17h1.88V15.13h1.88V28.25h7.5v1.88H64.88V32Z"/><path class="cls-7" d="M76.13,32V30.13H74.25v-7.5h1.88V20.75H74.25V18.88h1.88V17h7.5v1.88H85.5V30.13H83.63V32Zm5.63-3.75v-7.5H78v7.5Z"/><path class="cls-8" d="M96.75,33.88V32H94.88V28.25H93V26.38H91.13V32H87.38V22.63h1.88V20.75H87.38V17h1.88v1.88h1.88v1.88H93v1.88h1.88V18.88h1.88V17h1.88V33.88Z"/><path class="cls-9" d="M100.5,32V22.63h1.88V20.75H100.5V17h11.25v3.75h-7.5v1.88h5.63V24.5H108v1.88h-3.75v1.88h7.5V32Z"/><path class="cls-10" d="M113.63,22.63V18.88h3.75v3.75Zm0,7.5V26.38h3.75v3.75Z"/><path class="cls-11" d="M153.62,53.88V44.5H150.5V41.38h-3.12V35.13h-3.12V25.75h-3.12V32h-6.25v9.38h-3.12V44.5h-3.12V25.75h3.12V7h-3.12V3.88H125.5V.75h18.75V3.88h3.13V7h3.13v6.25h3.13V19.5h3.13v6.25h3.13V16.38H163V13.25h-3.12V3.88h-3.12V.75h12.5V19.5h-3.12V35.13H163V44.5h-3.12v6.25h-3.12v3.13Z"/><path class="cls-12" d="M172.37,32V16.38h3.13V13.25h-3.12V10.13h3.13V7H188v3.13h3.13V32h-6.25V22.63h-3.12v3.13h-3.12V32Zm12.5-12.5V13.25h-6.25V19.5Z"/><path class="cls-13" d="M213,35.13V32h-3.12V22.63h-3.12v3.13h-3.12V22.63H200.5V32h-6.25V16.38h3.13V13.25h-3.12V7h3.13v3.13h3.13v3.13h3.13v3.13h3.13V13.25h3.13V10.13H213V7h3.13V35.13Z"/><path class="cls-14" d="M219.25,32V16.38h3.13V13.25h-3.12V7H238v6.25H225.5v3.13h9.38V19.5h-3.12v3.13H225.5v3.13H238V32Z"/></g></g></svg>