<svg xmlns="http://www.w3.org/2000/svg" xmlns:xlink="http://www.w3.org/1999/xlink" viewBox="0 0 353 178.42"><defs><style>.cls-1{fill:#ae2382;}.cls-2{fill:#444;}.cls-3{fill:#1d1d1b;}.cls-4{fill:url(#linear-gradient);}.cls-5{fill:#1e1e17;}.cls-6{fill:url(#linear-gradient-2);}.cls-7{fill:url(#linear-gradient-3);}.cls-8{fill:url(#linear-gradient-4);}.cls-9{fill:url(#linear-gradient-5);}.cls-10{fill:url(#linear-gradient-6);}.cls-11{fill:url(#linear-gradient-7);}.cls-12{fill:url(#linear-gradient-8);}.cls-13{fill:url(#linear-gradient-9);}.cls-14{fill:url(#linear-gradient-10);}.cls-15{fill:url(#linear-gradient-11);}.cls-16{fill:url(#linear-gradient-12);}.cls-17{fill:url(#linear-gradient-13);}.cls-18{fill:url(#linear-gradient-14);}.cls-19{fill:url(#linear-gradient-15);}.cls-20{fill:url(#linear-gradient-16);}.cls-21{fill:url(#linear-gradient-17);}.cls-22{fill:url(#linear-gradient-18);}.cls-23{fill:url(#linear-gradient-19);}.cls-24{fill:url(#linear-gradient-20);}.cls-25{fill:url(#linear-gradient-21);}.cls-26{fill:url(#linear-gradient-22);}.cls-27{fill:url(#linear-gradient-23);}.cls-28{fill:url(#linear-gradient-24);}.cls-29{fill:url(#linear-gradient-25);}.cls-30{fill:url(#linear-gradient-26);}.cls-31{fill:url(#linear-gradient-27);}.cls-32{fill:url(#linear-gradient-28);}</style><linearGradient id="linear-gradient" x1="50" y1="74.5" x2="50" y2="1.5" gradientUnits="userSpaceOnUse"><stop offset="0.28" stop-color="#c5a88b"/><stop offset="0.67" stop-color="#fee6b2"/><stop offset="0.89" stop-color="#9b856e"/><stop offset="1" stop-color="#7e6d50"/></linearGradient><linearGradient id="linear-gradient-2" x1="105" y1="54.5" x2="105" y2="11.5" xlink:href="#linear-gradient"/><linearGradient id="linear-gradient-3" x1="142.5" y1="59.5" x2="142.5" y2="11.5" xlink:href="#linear-gradient"/><linearGradient id="linear-gradient-4" x1="180" y1="54.5" x2="180" y2="11.5" xlink:href="#linear-gradient"/><linearGradient id="linear-gradient-5" x1="215" y1="54.5" x2="215" y2="6.5" xlink:href="#linear-gradient"/><linearGradient id="linear-gradient-6" x1="250" y1="54.5" x2="250" y2="11.5" xlink:href="#linear-gradient"/><linearGradient id="linear-gradient-7" x1="275" y1="54.5" x2="275" y2="11.5" xlink:href="#linear-gradient"/><linearGradient id="linear-gradient-8" x1="300" y1="59.5" x2="300" y2="11.5" xlink:href="#linear-gradient"/><linearGradient id="linear-gradient-9" x1="335" y1="59.5" x2="335" y2="11.5" xlink:href="#linear-gradient"/><linearGradient id="linear-gradient-10" x1="125" y1="139.5" x2="125" y2="66.5" xlink:href="#linear-gradient"/><linearGradient id="linear-gradient-11" x1="167.5" y1="119.5" x2="167.5" y2="76.5" xlink:href="#linear-gradient"/><linearGradient id="linear-gradient-12" x1="202.5" y1="119.5" x2="202.5" y2="76.5" xlink:href="#linear-gradient"/><linearGradient id="linear-gradient-13" x1="237.5" y1="119.5" x2="237.5" y2="76.5" xlink:href="#linear-gradient"/><linearGradient id="linear-gradient-14" x1="272.5" y1="124.5" x2="272.5" y2="76.5" xlink:href="#linear-gradient"/><linearGradient id="linear-gradient-15" x1="50" y1="73" x2="50" y2="3" xlink:href="#linear-gradient"/><linearGradient id="linear-gradient-16" x1="105" y1="53" x2="105" y2="13" xlink:href="#linear-gradient"/><linearGradient id="linear-gradient-17" x1="142.5" y1="58" x2="142.5" y2="13" xlink:href="#linear-gradient"/><linearGradient id="linear-gradient-18" x1="180" y1="53" x2="180" y2="13" xlink:href="#linear-gradient"/><linearGradient id="linear-gradient-19" x1="215" y1="53" x2="215" y2="8" xlink:href="#linear-gradient"/><linearGradient id="linear-gradient-20" x1="250" y1="53" x2="250" y2="13" xlink:href="#linear-gradient"/><linearGradient id="linear-gradient-21" x1="275" y1="53" x2="275" y2="13" xlink:href="#linear-gradient"/><linearGradient id="linear-gradient-22" x1="300" y1="58" x2="300" y2="13" xlink:href="#linear-gradient"/><linearGradient id="linear-gradient-23" x1="335" y1="58" x2="335" y2="13" xlink:href="#linear-gradient"/><linearGradient id="linear-gradient-24" x1="125" y1="138" x2="125" y2="68" xlink:href="#linear-gradient"/><linearGradient id="linear-gradient-25" x1="167.5" y1="118" x2="167.5" y2="78" xlink:href="#linear-gradient"/><linearGradient id="linear-gradient-26" x1="202.5" y1="118" x2="202.5" y2="78" xlink:href="#linear-gradient"/><linearGradient id="linear-gradient-27" x1="237.5" y1="118" x2="237.5" y2="78" xlink:href="#linear-gradient"/><linearGradient id="linear-gradient-28" x1="272.5" y1="123" x2="272.5" y2="78" xlink:href="#linear-gradient"/></defs><title>Asset 3</title><g id="Layer_2" data-name="Layer 2"><g id="Layer_1-2" data-name="Layer 1"><path class="cls-1" d="M218.31,176.21H217v-8.84h1.26v-1.25h3.78v1.25h-2.52v8.86h2.54V166.11h1.25v1.26h1.26v8.84h-1.25v1.26h-5Z"/><path class="cls-1" d="M225.9,168.64h6.31v1.26h1.26v7.58H231v-7.59h-2.53v7.59H225.9ZM236,169.89h-2.53v-1.25h3.78v1.26h1.26v7.58H236Z"/><path class="cls-1" d="M239.81,166.11h2.52v2.53h2.53v1.25h-2.52v6.33h2.54v-7.58h1.25v1.26h1.26v6.31h-1.25v1.26h-6.31Z"/><path class="cls-1" d="M249.92,176.21h-1.26v-7.58h2.52v7.59h2.54v-7.58h2.52v8.84h-6.31Z"/><path class="cls-1" d="M258.78,176.21h-1.26V169.9h1.26v-1.25h3.78v1.25H260v6.33h2.54V166.11h2.52v11.37h-6.31Z"/><path class="cls-1" d="M267.63,176.21h2.53v-1.26h-1.26v-1.26h-1.26v-1.26h-1.26V169.9h1.26v-1.25h3.78v1.25h-2.52v1.27h1.26v1.26h1.26v1.26h1.26v2.52h-1.25v1.26h-3.78ZM266.36,175h1.25v1.25h-1.25Zm5.06-5.06h1.25v1.25h-1.25Z"/><path class="cls-1" d="M273.95,168.64h6.31v1.26h1.26v7.58H279v-7.59h-2.53v7.59h-2.52Zm10.12,1.25h-2.53v-1.25h3.78v1.26h1.26v7.58h-2.52Z"/><path class="cls-1" d="M289.12,176.21h-1.26v-2.52h2.52v2.53h2.54v-2.53h-3.79v-1.25h3.79v-2.53h-3.79v-1.25h5v1.26h1.26v7.58h-6.31Zm-1.26-6.31h1.25v1.25h-1.25Z"/><path class="cls-1" d="M296.71,168.64H303v1.26h1.26v7.58h-2.52v-7.59h-2.53v7.59h-2.52Z"/><path class="cls-2" d="M54.46,177.17v-6.25h1.25v-1.25H54.46v-1.25h1.25v-1.25h5v1.25H62v8.75h-2.5v-3.75H58.21v1.25H57v2.5Zm5-5v-2.5H57v2.5Z"/><path class="cls-2" d="M68.21,177.17v-1.25H67v-5h1.25v-1.25H67v-1.25h1.25v-1.25h5v1.25h1.25v2.5H72v-1.25h-2.5v5H72v-1.25h2.5v2.5H73.21v1.25Z"/><path class="cls-2" d="M77,177.17v-1.25H75.71v-5H77v-1.25H75.71v-1.25H77v-1.25h5v1.25h1.25v7.5H82v1.25Zm3.75-2.5v-5h-2.5v5Z"/><path class="cls-2" d="M92,178.42v-1.25H90.71v-3.75H89.46v1.25H88.21v-1.25H87v3.75h-2.5v-6.25h1.25v-1.25H84.46v-2.5h1.25v1.25H87v1.25h1.25v1.25h1.25v-1.25h1.25v-1.25H92v-1.25h1.25v11.25Z"/><path class="cls-2" d="M94.46,177.17v-6.25h1.25v-1.25H94.46v-2.5h6.25v1.25H102v5h-1.25v1.25h-2.5v-1.25H97v3.75Zm5-5v-2.5H97v2.5Z"/><path class="cls-2" d="M103.21,177.17v-6.25h1.25v-1.25h-1.25v-2.5h1.25v-1.25h1.25v8.75h5v1.25h-1.25v1.25Z"/><path class="cls-2" d="M112,177.17v-6.25h1.25v-1.25H112v-1.25h1.25v-1.25h5v1.25h1.25v8.75H117v-3.75h-1.25v1.25h-1.25v2.5Zm5-5v-2.5h-2.5v2.5Z"/><path class="cls-2" d="M120.71,177.17v-6.25H122v-1.25h-1.25v-2.5h2.5v10Z"/><path class="cls-2" d="M130.71,178.42v-1.25h-1.25v-2.5h-1.25v-1.25H127v3.75h-2.5v-6.25h1.25v-1.25h-1.25v-2.5h1.25v1.25H127v1.25h1.25v1.25h1.25v-2.5h1.25v-1.25H132v11.25Z"/><path class="cls-2" d="M137,178.42v-1.25h-1.25v-6.25H137v-1.25h-3.75v-2.5h7.5v2.5h-2.5v8.75Z"/><path class="cls-2" d="M143.21,177.17v-1.25H142v-1.25h5v-1.25h-3.75v-1.25H142v-1.25h1.25v-1.25H142v-1.25h1.25v-1.25h6.25v1.25h-1.25v1.25h-3.75v1.25h3.75v1.25h1.25v3.75h-1.25v1.25Z"/><path class="cls-2" d="M154.46,178.42v-7.5h1.25v-1.25h-1.25v-2.5H162v2.5h-5v1.25h3.75v1.25h-1.25v1.25H157v3.75h-1.25v1.25Z"/><path class="cls-2" d="M164.46,177.17v-1.25h-1.25v-5h1.25v-1.25h-1.25v-1.25h1.25v-1.25h5v1.25h1.25v7.5h-1.25v1.25Zm3.75-2.5v-5h-2.5v5Z"/><path class="cls-2" d="M178.21,178.42v-1.25H177v-3.75h-1.25v1.25h-1.25v2.5H172v-6.25h1.25v-1.25H172v-2.5h6.25v1.25h1.25v3.75h-1.25v1.25h1.25v5ZM177,172.17v-2.5h-2.5v2.5Z"/><path class="cls-2" d="M188.21,178.42v-1.25H187v-3.75h-1.25v1.25h-1.25v-1.25h-1.25v3.75h-2.5v-6.25H182v-1.25h-1.25v-2.5H182v1.25h1.25v1.25h1.25v1.25h1.25v-1.25H187v-1.25h1.25v-1.25h1.25v11.25Z"/><path class="cls-2" d="M194.46,177.17v-6.25h1.25v-1.25h-1.25v-2.5h6.25v1.25H202v2.5h-1.25v1.25H202v3.75h-1.25v1.25Zm5-6.25v-1.25H197v1.25Zm0,3.75v-2.5h-1.25v1.25H197v1.25Z"/><path class="cls-2" d="M207,178.42v-1.25h-1.25v-3.75h-1.25v-1.25h-1.25v-1.25h1.25v-1.25h-1.25v-2.5h2.5v3.75h2.5v-2.5h1.25v-1.25h1.25v5h-1.25v1.25h-1.25v5Z"/><path class="cls-3" d="M25,81V76H20V71H10V66H5V61H0V36H5V26h5V21h5V16h5V11H55v5H65V11H75V31H70V41H65V36H60V26H55V21H35v5H30v5H25V41H20V56h5v5H35v5H50V61H70V56h5V51h5V66H75v5H70v5H60v5Z"/><path class="cls-3" d="M85,61V56H80V36h5V31H80V26h5V21h20v5h5V56h-5v5Zm15-10V31H90V51Z"/><path class="cls-3" d="M145,66V61h-5V46h-5v5h-5V46h-5V61H115V36h5V31h-5V21h5v5h5v5h5v5h5V31h5V26h5V21h5V66Z"/><path class="cls-3" d="M155,61V36h5V31h-5V21h25v5h5V46h-5v5H170V46h-5V61Zm20-20V31H165V41Z"/><path class="cls-3" d="M190,61V36h5V31h-5V21h5V16h5V51h20v5h-5v5Z"/><path class="cls-3" d="M225,61V36h5V31h-5V26h5V21h20v5h5V61H245V46h-5v5h-5V61Zm20-20V31H235V41Z"/><path class="cls-3" d="M260,61V36h5V31h-5V21h10V61Z"/><path class="cls-3" d="M300,66V61h-5V51h-5V46h-5V61H275V36h5V31h-5V21h5v5h5v5h5v5h5V26h5V21h5V66Z"/><path class="cls-3" d="M325,66V61h-5V36h5V31H310V21h30V31H330V66Z"/><path class="cls-3" d="M132.5,146v-5h-10v-5h-5v5h-40v-5h-5v-5h-5v-5h-5V96h5V86h10V81h5V76h35v5h10v5h5v5h5v30h-5v5h5v5h25v-5h5v10h-5v5h-10v5Zm-30-15v-5h-5v-5h-5v-5h-5v-5h30V96h-5V91h-5V86h-10v5h-10v10h-5v15h5v10h5v5Z"/><path class="cls-3" d="M147.5,128v-5h-5V103h5V98h-5V88h10v30h10V93h5V88h5v35h-5v5Z"/><path class="cls-3" d="M177.5,126V101h5V96h-5V86h30V96h-20v5h15v5h-5v5h-10v5h20v10Z"/><path class="cls-3" d="M217.5,126v-5h-5v-5h20v-5h-15v-5h-5v-5h5V96h-5V91h5V86h25v5h-5v5h-15v5h15v5h5v15h-5v5Z"/><path class="cls-3" d="M262.5,131v-5h-5V101h5V96h-15V86h30V96h-10v35Z"/><polygon class="cls-4" points="33.5 74.5 33.5 69.5 28.5 69.5 28.5 64.5 18.5 64.5 18.5 59.5 13.5 59.5 13.5 54.5 8.5 54.5 8.5 26.5 13.5 26.5 13.5 16.5 18.5 16.5 18.5 11.5 23.5 11.5 23.5 6.5 28.5 6.5 28.5 1.5 66.5 1.5 66.5 6.5 73.5 6.5 73.5 1.5 86.5 1.5 86.5 24.5 81.5 24.5 81.5 34.5 73.5 34.5 73.5 29.5 68.5 29.5 68.5 19.5 63.5 19.5 63.5 14.5 46.5 14.5 46.5 19.5 41.5 19.5 41.5 24.5 36.5 24.5 36.5 34.5 31.5 34.5 31.5 46.5 36.5 46.5 36.5 51.5 46.5 51.5 46.5 56.5 58.5 56.5 58.5 51.5 78.5 51.5 78.5 46.5 83.5 46.5 83.5 41.5 91.5 41.5 91.5 59.5 86.5 59.5 86.5 64.5 81.5 64.5 81.5 69.5 71.5 69.5 71.5 74.5 33.5 74.5"/><path class="cls-5" d="M85,3V23H80V33H75V28H70V18H65V13H45v5H40v5H35V33H30V48h5v5H45v5H60V53H80V48h5V43h5V58H85v5H80v5H70v5H35V68H30V63H20V58H15V53H10V28h5V18h5V13h5V8h5V3H65V8H75V3H85m3-3H72V5H68V0H27V5H22v5H17v5H12V25H7V56h5v5h5v5H27v5h5v5H73V71H83V66h5V61h5V40H82v5H77v5H57v5H48V50H38V45H33V36h5V26h5V21h5V16H62v5h5V31h5v5H83V26h5V0Z"/><path class="cls-6" d="M93.5,54.5v-5h-5v-23h5v-2h-5v-8h5v-5h23v5h5v33h-5v5Zm15-13v-17h-7v17Z"/><path class="cls-5" d="M115,13v5h5V48h-5v5H95V48H90V28h5V23H90V18h5V13h20M100,43h10V23H100V43m18-33H92v5H87V51h5v5h26V51h5V15h-5V10ZM103,26h4V40h-4V26Z"/><polygon class="cls-7" points="153.5 59.5 153.5 54.5 148.5 54.5 148.5 39.5 146.5 39.5 146.5 44.5 138.5 44.5 138.5 39.5 136.5 39.5 136.5 54.5 123.5 54.5 123.5 26.5 128.5 26.5 128.5 24.5 123.5 24.5 123.5 11.5 131.5 11.5 131.5 16.5 136.5 16.5 136.5 21.5 141.5 21.5 141.5 26.5 143.5 26.5 143.5 21.5 148.5 21.5 148.5 16.5 153.5 16.5 153.5 11.5 161.5 11.5 161.5 59.5 153.5 59.5"/><path class="cls-5" d="M160,13V58h-5V53h-5V38h-5v5h-5V38h-5V53H125V28h5V23h-5V13h5v5h5v5h5v5h5V23h5V18h5V13h5m3-3H152v5h-5v5h-9V15h-5V10H122V56h16V46h9V56h5v5h11V10Z"/><path class="cls-8" d="M163.5,54.5v-28h5v-2h-5v-13h28v5h5v23h-5v5h-13v-5h-2v15Zm20-23v-7h-7v7Z"/><path class="cls-5" d="M190,13v5h5V38h-5v5H180V38h-5V53H165V28h5V23h-5V13h25M175,33h10V23H175V33m18-23H162V56h16V46h15V41h5V15h-5V10ZM178,26h4v4h-4V26Z"/><polygon class="cls-9" points="198.5 54.5 198.5 26.5 203.5 26.5 203.5 24.5 198.5 24.5 198.5 11.5 203.5 11.5 203.5 6.5 211.5 6.5 211.5 41.5 231.5 41.5 231.5 49.5 226.5 49.5 226.5 54.5 198.5 54.5"/><path class="cls-5" d="M210,8V43h20v5h-5v5H200V28h5V23h-5V13h5V8h5m3-3H202v5h-5V56h31V51h5V40H213V5Z"/><path class="cls-10" d="M253.5,54.5v-15h-2v5h-5v10h-13v-28h5v-2h-5v-8h5v-5h23v5h5v38Zm0-23v-7h-7v7Z"/><path class="cls-5" d="M260,13v5h5V53H255V38h-5v5h-5V53H235V28h5V23h-5V18h5V13h20M245,33h10V23H245V33m18-23H237v5h-5V56h16V46h4V56h16V15h-5V10ZM248,26h4v4h-4V26Z"/><polygon class="cls-11" points="268.5 54.5 268.5 26.5 273.5 26.5 273.5 24.5 268.5 24.5 268.5 11.5 281.5 11.5 281.5 54.5 268.5 54.5"/><path class="cls-5" d="M280,13V53H270V28h5V23h-5V13h10m3-3H267V56h16V10Z"/><polygon class="cls-12" points="308.5 59.5 308.5 54.5 303.5 54.5 303.5 44.5 298.5 44.5 298.5 39.5 296.5 39.5 296.5 54.5 283.5 54.5 283.5 26.5 288.5 26.5 288.5 24.5 283.5 24.5 283.5 11.5 291.5 11.5 291.5 16.5 296.5 16.5 296.5 21.5 301.5 21.5 301.5 26.5 303.5 26.5 303.5 16.5 308.5 16.5 308.5 11.5 316.5 11.5 316.5 59.5 308.5 59.5"/><path class="cls-5" d="M315,13V58h-5V53h-5V43h-5V38h-5V53H285V28h5V23h-5V13h5v5h5v5h5v5h5V18h5V13h5m3-3H307v5h-5v5h-4V15h-5V10H282V56h16V46h4V56h5v5h11V10Z"/><polygon class="cls-13" points="333.5 59.5 333.5 54.5 328.5 54.5 328.5 26.5 333.5 26.5 333.5 24.5 318.5 24.5 318.5 11.5 351.5 11.5 351.5 24.5 341.5 24.5 341.5 59.5 333.5 59.5"/><path class="cls-5" d="M350,13V23H340V58h-5V53h-5V28h5V23H320V13h30m3-3H317V26h10V56h5v5h11V26h10V10Z"/><path class="cls-14" d="M141,139.5v-5H131v-5h-2v5H86v-5H81v-5H76v-5H71v-33h5v-10H86v-5h5v-5h38v5h10v5h5v5h5v33h-5v2h5v5h22v-5h8v13h-5v5H164v5Zm-30-18v-2h-5v-5h-5v-5H99v7h5v5Zm-15-15v-5h30v-12h-5v-5h-5v-5h-7v5H99v10H94v12Z"/><path class="cls-5" d="M127.5,68v5h10v5h5v5h5v30h-5v5h5v5h25v-5h5v10h-5v5h-10v5h-20v-5h-10v-5h-5v5h-40v-5h-5v-5h-5v-5h-5V88h5V78h10V73h5V68h35m-35,40h5v10h5v5h10v-5h-5v-5h-5v-5h-5v-5h30V88h-5V83h-5V78h-10v5h-10V93h-5v15m38-43h-41v5h-5v5h-10V85h-5v36h5v5h5v5h5v5h55v5h26v-5h10v-5h5V115h-11v5h-19V80h-5V75h-5V70h-10V65Zm-20,16h4v5h5v5h5v9h-29V96h5V86h10V81Z"/><polygon class="cls-15" points="156 119.5 156 114.5 151 114.5 151 91.5 156 91.5 156 89.5 151 89.5 151 76.5 164 76.5 164 106.5 171 106.5 171 81.5 176 81.5 176 76.5 184 76.5 184 114.5 179 114.5 179 119.5 156 119.5"/><path class="cls-5" d="M182.5,78v35h-5v5h-20v-5h-5V93h5V88h-5V78h10v30h10V83h5V78h5m3-3h-11v5h-5v25h-4V75h-16v41h5v5h26v-5h5V75Z"/><polygon class="cls-16" points="186 119.5 186 91.5 191 91.5 191 89.5 186 89.5 186 76.5 219 76.5 219 89.5 199 89.5 199 91.5 214 91.5 214 99.5 209 99.5 209 104.5 199 104.5 199 106.5 219 106.5 219 119.5 186 119.5"/><path class="cls-5" d="M217.5,78V88h-20v5h15v5h-5v5h-10v5h20v10h-30V93h5V88h-5V78h30m3-3h-36v46h36V105h-10v-4h5V91h5V75Z"/><polygon class="cls-17" points="226 119.5 226 114.5 221 114.5 221 106.5 241 106.5 241 104.5 226 104.5 226 99.5 221 99.5 221 91.5 226 91.5 226 89.5 221 89.5 221 81.5 226 81.5 226 76.5 254 76.5 254 84.5 249 84.5 249 89.5 234 89.5 234 91.5 249 91.5 249 96.5 254 96.5 254 114.5 249 114.5 249 119.5 226 119.5"/><path class="cls-5" d="M252.5,78v5h-5v5h-15v5h15v5h5v15h-5v5h-20v-5h-5v-5h20v-5h-15V98h-5V93h5V88h-5V83h5V78h25m3-3h-31v5h-5v21h5v4h-5v11h5v5h26v-5h5V95h-5V86h5V75Z"/><polygon class="cls-18" points="271 124.5 271 119.5 266 119.5 266 91.5 271 91.5 271 89.5 256 89.5 256 76.5 289 76.5 289 89.5 279 89.5 279 124.5 271 124.5"/><path class="cls-5" d="M287.5,78V88h-10v35h-5v-5h-5V93h5V88h-15V78h30m3-3h-36V91h10v30h5v5h11V91h10V75Z"/><path class="cls-19" d="M35,73V68H30V63H20V58H15V53H10V28h5V18h5V13h5V8h5V3H65V8H75V3H85V23H80V33H75V28H70V18H65V13H45v5H40v5H35V33H30V48h5v5H45v5H60V53H80V48h5V43h5V58H85v5H80v5H70v5Z"/><path class="cls-20" d="M95,53V48H90V28h5V23H90V18h5V13h20v5h5V48h-5v5Zm15-10V23H100V43Z"/><path class="cls-21" d="M155,58V53h-5V38h-5v5h-5V38h-5V53H125V28h5V23h-5V13h5v5h5v5h5v5h5V23h5V18h5V13h5V58Z"/><path class="cls-22" d="M165,53V28h5V23h-5V13h25v5h5V38h-5v5H180V38h-5V53Zm20-20V23H175V33Z"/><path class="cls-23" d="M200,53V28h5V23h-5V13h5V8h5V43h20v5h-5v5Z"/><path class="cls-24" d="M235,53V28h5V23h-5V18h5V13h20v5h5V53H255V38h-5v5h-5V53Zm20-20V23H245V33Z"/><path class="cls-25" d="M270,53V28h5V23h-5V13h10V53Z"/><path class="cls-26" d="M310,58V53h-5V43h-5V38h-5V53H285V28h5V23h-5V13h5v5h5v5h5v5h5V18h5V13h5V58Z"/><path class="cls-27" d="M335,58V53h-5V28h5V23H320V13h30V23H340V58Z"/><path class="cls-28" d="M142.5,138v-5h-10v-5h-5v5h-40v-5h-5v-5h-5v-5h-5V88h5V78h10V73h5V68h35v5h10v5h5v5h5v30h-5v5h5v5h25v-5h5v10h-5v5h-10v5Zm-30-15v-5h-5v-5h-5v-5h-5v-5h30V88h-5V83h-5V78h-10v5h-10V93h-5v15h5v10h5v5Z"/><path class="cls-29" d="M157.5,118v-5h-5V93h5V88h-5V78h10v30h10V83h5V78h5v35h-5v5Z"/><path class="cls-30" d="M187.5,118V93h5V88h-5V78h30V88h-20v5h15v5h-5v5h-10v5h20v10Z"/><path class="cls-31" d="M227.5,118v-5h-5v-5h20v-5h-15V98h-5V93h5V88h-5V83h5V78h25v5h-5v5h-15v5h15v5h5v15h-5v5Z"/><path class="cls-32" d="M272.5,123v-5h-5V93h5V88h-15V78h30V88h-10v35Z"/></g></g></svg>