<svg xmlns="http://www.w3.org/2000/svg" xmlns:xlink="http://www.w3.org/1999/xlink" viewBox="0 0 435.25 56.5"><defs><style>.cls-1{fill:#1d1d1b;}.cls-10,.cls-11,.cls-12,.cls-13,.cls-14,.cls-15,.cls-2,.cls-3,.cls-4,.cls-5,.cls-6,.cls-7,.cls-8,.cls-9{stroke:#1e1e17;stroke-miterlimit:10;stroke-width:2px;}.cls-2{fill:url(#linear-gradient);}.cls-3{fill:url(#linear-gradient-2);}.cls-4{fill:url(#linear-gradient-3);}.cls-5{fill:url(#linear-gradient-4);}.cls-6{fill:url(#linear-gradient-5);}.cls-7{fill:url(#linear-gradient-6);}.cls-8{fill:url(#linear-gradient-7);}.cls-9{fill:url(#linear-gradient-8);}.cls-10{fill:url(#linear-gradient-9);}.cls-11{fill:url(#linear-gradient-10);}.cls-12{fill:url(#linear-gradient-11);}.cls-13{fill:url(#linear-gradient-12);}.cls-14{fill:url(#linear-gradient-13);}.cls-15{fill:url(#linear-gradient-14);}</style><linearGradient id="linear-gradient" x1="42.38" y1="53.5" x2="42.38" y2="1" gradientUnits="userSpaceOnUse"><stop offset="0" stop-color="#f18731"/><stop offset="0.08" stop-color="#ef8d36"/><stop offset="0.2" stop-color="#eb9f43"/><stop offset="0.33" stop-color="#e4bb59"/><stop offset="0.43" stop-color="#ddd76f"/><stop offset="0.51" stop-color="#ddd871"/><stop offset="0.53" stop-color="#dfd978"/><stop offset="0.55" stop-color="#e2dd83"/><stop offset="0.57" stop-color="#e6e194"/><stop offset="0.58" stop-color="#ebe7aa"/><stop offset="0.59" stop-color="#f1efc6"/><stop offset="0.61" stop-color="#f9f8e5"/><stop offset="0.61" stop-color="#fff"/><stop offset="0.63" stop-color="#fff"/><stop offset="0.75" stop-color="#fff"/><stop offset="0.76" stop-color="#fbf2e0"/><stop offset="0.77" stop-color="#f6e1b7"/><stop offset="0.78" stop-color="#f1d291"/><stop offset="0.79" stop-color="#edc571"/><stop offset="0.81" stop-color="#eab955"/><stop offset="0.83" stop-color="#e7b03f"/><stop offset="0.85" stop-color="#e5a92f"/><stop offset="0.87" stop-color="#e3a523"/><stop offset="0.9" stop-color="#e2a21c"/><stop offset="1" stop-color="#e2a11a"/></linearGradient><linearGradient id="linear-gradient-2" x1="74.25" y1="38.5" x2="74.25" y2="8.5" xlink:href="#linear-gradient"/><linearGradient id="linear-gradient-3" x1="100.5" y1="38.5" x2="100.5" y2="8.5" xlink:href="#linear-gradient"/><linearGradient id="linear-gradient-4" x1="126.75" y1="38.5" x2="126.75" y2="8.5" xlink:href="#linear-gradient"/><linearGradient id="linear-gradient-5" x1="153" y1="42.25" x2="153" y2="8.5" xlink:href="#linear-gradient"/><linearGradient id="linear-gradient-6" x1="209.25" x2="209.25" xlink:href="#linear-gradient"/><linearGradient id="linear-gradient-7" x1="250.5" y1="38.5" x2="250.5" y2="8.5" xlink:href="#linear-gradient"/><linearGradient id="linear-gradient-8" x1="278.62" y1="42.25" x2="278.62" y2="8.5" xlink:href="#linear-gradient"/><linearGradient id="linear-gradient-9" x1="306.75" y1="38.5" x2="306.75" y2="8.5" xlink:href="#linear-gradient"/><linearGradient id="linear-gradient-10" x1="333" y1="38.5" x2="333" y2="4.75" xlink:href="#linear-gradient"/><linearGradient id="linear-gradient-11" x1="359.25" y1="38.5" x2="359.25" y2="8.5" xlink:href="#linear-gradient"/><linearGradient id="linear-gradient-12" x1="385.5" y1="42.25" x2="385.5" y2="8.5" xlink:href="#linear-gradient"/><linearGradient id="linear-gradient-13" x1="411.75" y1="38.5" x2="411.75" y2="8.5" xlink:href="#linear-gradient"/><linearGradient id="linear-gradient-14" x1="430.5" y1="38.5" x2="430.5" y2="8.5" xlink:href="#linear-gradient"/></defs><title>Asset 10</title><g id="Layer_2" data-name="Layer 2"><g id="Layer_1-2" data-name="Layer 1"><path class="cls-1" d="M52.5,56.5V52.75H45V49H41.25v3.75h-30V49H7.5V45.25H3.75V41.5H0V19H3.75V11.5h7.5V7.75H15V4H41.25V7.75h7.5V11.5H52.5v3.75h3.75v22.5H52.5V41.5h3.75v3.75H75V41.5h3.75V49H75v3.75H67.5V56.5ZM30,45.25V41.5H26.25V37.75H22.5V34H18.75V30.25h22.5V19H37.5V15.25H33.75V11.5h-7.5v3.75h-7.5v7.5H15V34h3.75v7.5H22.5v3.75Z"/><path class="cls-1" d="M63.75,41.5V37.75H60v-15h3.75V19H60V11.5h7.5V34H75V15.25h3.75V11.5H82.5V37.75H78.75V41.5Z"/><path class="cls-1" d="M86.25,41.5V22.75H90V19H86.25V11.5h22.5V19h-15v3.75H105V26.5h-3.75v3.75h-7.5V34h15v7.5Z"/><path class="cls-1" d="M116.25,41.5V37.75H112.5V34h15V30.25H116.25V26.5H112.5V22.75h3.75V19H112.5V15.25h3.75V11.5H135v3.75h-3.75V19H120v3.75h11.25V26.5H135V37.75h-3.75V41.5Z"/><path class="cls-1" d="M150,45.25V41.5h-3.75V22.75H150V19H138.75V11.5h22.5V19h-7.5V45.25Z"/><path class="cls-1" d="M195,56.5V52.75h-3.75V49h-7.5V45.25H180V41.5h-3.75V22.75H180v-7.5h3.75V11.5h3.75V7.75h3.75V4H217.5V7.75H225V4h7.5V19h-3.75v7.5H225V22.75h-3.75v-7.5H217.5V11.5h-15v3.75h-3.75V19H195v7.5h-3.75V37.75H195V41.5h7.5v3.75h11.25V41.5h15V37.75h3.75V34h3.75V45.25H232.5V49h-3.75v3.75h-7.5V56.5Z"/><path class="cls-1" d="M240,41.5V37.75h-3.75v-15H240V19h-3.75V15.25H240V11.5h15v3.75h3.75v22.5H255V41.5ZM251.25,34V19h-7.5V34Z"/><path class="cls-1" d="M285,45.25V41.5h-3.75V30.25H277.5V34h-3.75V30.25H270V41.5h-7.5V22.75h3.75V19H262.5V11.5h3.75v3.75H270V19h3.75v3.75h3.75V19h3.75V15.25H285V11.5h3.75V45.25Z"/><path class="cls-1" d="M292.5,41.5V22.75h3.75V19H292.5V11.5h18.75v3.75H315v15h-3.75V34h-7.5V30.25H300V41.5Zm15-15V19H300v7.5Z"/><path class="cls-1" d="M318.75,41.5V22.75h3.75V19h-3.75V11.5h3.75V7.75h3.75V34h15v3.75H337.5V41.5Z"/><path class="cls-1" d="M345,41.5V22.75h3.75V19H345V11.5h22.5V19h-15v3.75h11.25V26.5H360v3.75h-7.5V34h15v7.5Z"/><path class="cls-1" d="M382.5,45.25V41.5h-3.75V22.75h3.75V19H371.25V11.5h22.5V19h-7.5V45.25Z"/><path class="cls-1" d="M397.5,41.5V22.75h3.75V19H397.5V11.5H420V19H405v3.75h11.25V26.5H412.5v3.75H405V34h15v7.5Z"/><path class="cls-1" d="M423.75,30.25V11.5h7.5V30.25Zm0,11.25V34h7.5v7.5Z"/><path class="cls-2" d="M55.5,53.5V49.75H48V46H44.25v3.75h-30V46H10.5V42.25H6.75V38.5H3V16H6.75V8.5h7.5V4.75H18V1H44.25V4.75h7.5V8.5H55.5v3.75h3.75v22.5H55.5V38.5h3.75v3.75H78V38.5h3.75V46H78v3.75H70.5V53.5ZM33,42.25V38.5H29.25V34.75H25.5V31H21.75V27.25h22.5V16H40.5V12.25H36.75V8.5h-7.5v3.75h-7.5v7.5H18V31h3.75v7.5H25.5v3.75Z"/><path class="cls-3" d="M66.75,38.5V34.75H63v-15h3.75V16H63V8.5h7.5V31H78V12.25h3.75V8.5H85.5V34.75H81.75V38.5Z"/><path class="cls-4" d="M89.25,38.5V19.75H93V16H89.25V8.5h22.5V16h-15v3.75H108V23.5h-3.75v3.75h-7.5V31h15v7.5Z"/><path class="cls-5" d="M119.25,38.5V34.75H115.5V31h15V27.25H119.25V23.5H115.5V19.75h3.75V16H115.5V12.25h3.75V8.5H138v3.75h-3.75V16H123v3.75h11.25V23.5H138V34.75h-3.75V38.5Z"/><path class="cls-6" d="M153,42.25V38.5h-3.75V19.75H153V16H141.75V8.5h22.5V16h-7.5V42.25Z"/><path class="cls-7" d="M198,53.5V49.75h-3.75V46h-7.5V42.25H183V38.5h-3.75V19.75H183v-7.5h3.75V8.5h3.75V4.75h3.75V1H220.5V4.75H228V1h7.5V16h-3.75v7.5H228V19.75h-3.75v-7.5H220.5V8.5h-15v3.75h-3.75V16H198v7.5h-3.75V34.75H198V38.5h7.5v3.75h11.25V38.5h15V34.75h3.75V31h3.75V42.25H235.5V46h-3.75v3.75h-7.5V53.5Z"/><path class="cls-8" d="M243,38.5V34.75h-3.75v-15H243V16h-3.75V12.25H243V8.5h15v3.75h3.75v22.5H258V38.5ZM254.25,31V16h-7.5V31Z"/><path class="cls-9" d="M288,42.25V38.5h-3.75V27.25H280.5V31h-3.75V27.25H273V38.5h-7.5V19.75h3.75V16H265.5V8.5h3.75v3.75H273V16h3.75v3.75h3.75V16h3.75V12.25H288V8.5h3.75V42.25Z"/><path class="cls-10" d="M295.5,38.5V19.75h3.75V16H295.5V8.5h18.75v3.75H318v15h-3.75V31h-7.5V27.25H303V38.5Zm15-15V16H303v7.5Z"/><path class="cls-11" d="M321.75,38.5V19.75h3.75V16h-3.75V8.5h3.75V4.75h3.75V31h15v3.75H340.5V38.5Z"/><path class="cls-12" d="M348,38.5V19.75h3.75V16H348V8.5h22.5V16h-15v3.75h11.25V23.5H363v3.75h-7.5V31h15v7.5Z"/><path class="cls-13" d="M385.5,42.25V38.5h-3.75V19.75h3.75V16H374.25V8.5h22.5V16h-7.5V42.25Z"/><path class="cls-14" d="M400.5,38.5V19.75h3.75V16H400.5V8.5H423V16H408v3.75h11.25V23.5H415.5v3.75H408V31h15v7.5Z"/><path class="cls-15" d="M426.75,27.25V8.5h7.5V27.25Zm0,11.25V31h7.5v7.5Z"/></g></g></svg>